<svg width="51" height="51" viewBox="0 0 51 51" fill="none" xmlns="http://www.w3.org/2000/svg">
<rect width="51" height="51" rx="10" fill="#1D3557"/>
<path d="M42.5118 0H8.48803C3.79983 0 0 3.79973 0 8.48813V42.5118C0 47.2001 3.79983 51 8.48803 51H42.5118C47.2001 51 51 47.2001 51 42.5118V8.48813C51 3.79973 47.2001 0 42.5118 0ZM22.5863 32.9261C22.5863 33.9823 21.7292 34.8393 20.673 34.8393H16.3977C15.3415 34.8393 14.4843 33.9823 14.4843 32.9261V18.0755C14.4843 17.0193 15.3415 16.1621 16.3977 16.1621H20.673C21.7292 16.1621 22.5863 17.0193 22.5863 18.0755V32.9261ZM36.5187 32.9261C36.5187 33.9823 35.6616 34.8393 34.6056 34.8393H30.3299C29.2739 34.8393 28.4168 33.9823 28.4168 32.9261V18.0721C28.4168 17.0158 29.2739 16.1589 30.3299 16.1589H34.6056C35.6616 16.1589 36.5187 17.0158 36.5187 18.0721V32.9261Z" fill="#E63946"/>
</svg>
